<svg width="150" height="25" viewBox="0 0 150 25" fill="none" xmlns="http://www.w3.org/2000/svg">
<path d="M0 24.5455V0H16.0342V4.96169H4.98645V9.67792H14.8184V14.6396H4.98645V19.5838H16.0342V24.5455H0ZM1.69152 22.8448H14.5893V21.1792H3.36541V12.9916H13.3559V11.326H3.36541V3.27857H14.5893V1.61299H1.69152V22.8448Z" fill="#EEFF03"/>
<path d="M23.7275 24.5455L20.0978 20.9338V16.5156H25.0842V18.5143L26.159 19.5838H32.9251L33.9999 18.5143V15.8143L32.9251 14.7448H23.8332L20.2035 11.1331V3.61169L23.8332 0H35.0219L38.6516 3.61169V8.02987H33.6651V6.03117L32.5903 4.96169H26.2647L25.1723 6.03117V8.71364L26.2647 9.78312H35.3566L38.9863 13.3948V20.9338L35.3566 24.5455H23.7275ZM24.5027 22.9149H34.4404L37.2596 20.1273V13.9909L34.6871 11.4136H25.4718L23.5336 9.48507V5.22468L25.4542 3.31364H33.4889L35.3038 5.10195V6.52208H36.9777V4.33052L34.2818 1.64805H24.6613L21.8597 4.45325V10.2565L24.7142 13.0968H33.8766L35.5857 14.7273V19.3558L33.6475 21.2494H25.3133L23.4984 19.461V18.0234H21.8245V20.2325L24.5027 22.9149Z" fill="#EEFF03"/>
<path d="M48.4612 24.5455V4.96169H42.3471V0H59.5441V4.96169H53.43V24.5455H48.4612ZM50.0998 22.9675H51.7737V3.27857H57.9583V1.61299H43.9329V3.27857H50.0998V22.9675Z" fill="#EEFF03"/>
<path d="M63.0849 24.5455V0H78.2909L81.9206 3.61169V11.2208L79.771 13.1844L81.9206 15.5162V24.5455H76.9342V17.2695L75.1722 15.5162H68.0714V24.5455H63.0849ZM64.7412 22.9325H66.4151V13.7805H75.877L78.6257 16.6909V22.9325H80.2996V16.1474L77.4099 12.9916L80.2115 10.5896V4.41818L77.4099 1.61299H64.7412V22.9325ZM68.0714 10.5545H75.8594L76.9342 9.46753V6.03117L75.8594 4.96169H68.0714V10.5545ZM66.4151 12.1149V3.27857H76.5994L78.5376 5.18961V10.0286L76.1061 12.1149H66.4151Z" fill="#EEFF03"/>
<path d="M85.9661 24.5455V3.61169L89.5958 0H100.978L104.608 3.61169V24.5455H99.6392V17.3221H90.9349V24.5455H85.9661ZM87.6752 22.7747H89.3491V15.7266H101.295V22.7747H102.969V4.34805L100.15 1.54286H90.4768L87.6752 4.34805V22.7747ZM90.9349 12.3779H99.6392V6.03117L98.5643 4.96169H92.0097L90.9349 6.03117V12.3779ZM89.3491 14.061V5.11948L91.2697 3.20844H99.3572L101.295 5.11948V14.061H89.3491Z" fill="#EEFF03"/>
<path d="M108.821 24.5455V0H123.499L127.128 3.61169V20.9338L123.499 24.5455H108.821ZM113.808 19.5838H121.085L122.159 18.5143V6.03117L121.085 4.96169H113.808V19.5838ZM110.495 22.8974H122.635L125.437 20.1097V4.45325L122.635 1.66558H110.495V22.8974ZM112.169 21.2318V3.33117H121.842L123.78 5.22468V19.3383L121.842 21.2318H112.169Z" fill="#EEFF03"/>
<path d="M131.358 24.5455V3.61169L134.988 0H146.37L150 3.61169V24.5455H145.031V17.3221H136.327V24.5455H131.358ZM133.067 22.7747H134.741V15.7266H146.687V22.7747H148.361V4.34805L145.542 1.54286H135.869L133.067 4.34805V22.7747ZM136.327 12.3779H145.031V6.03117L143.956 4.96169H137.402L136.327 6.03117V12.3779ZM134.741 14.061V5.11948L136.662 3.20844H144.749L146.687 5.11948V14.061H134.741Z" fill="#EEFF03"/>
</svg>
