<svg width="159" height="44" viewBox="0 0 159 44" fill="none" xmlns="http://www.w3.org/2000/svg">
<mask id="path-1-outside-1_649_2" maskUnits="userSpaceOnUse" x="-0.847656" y="-0.386719" width="160" height="45" fill="black">
<rect fill="white" x="-0.847656" y="-0.386719" width="160" height="45"/>
<path fill-rule="evenodd" clip-rule="evenodd" d="M7.39604 14.0104H14.8531L18.9207 21.0953L22.267 15.0663V14.0104H22.8531L24.1836 11.6133V14.0104H31.1342V36.081H22.267V30.5596L18.4188 37.5199L14.6692 30.8753V36.081H6.19953V15.8661L5.15234 14.0104H6.19953V11.9003L7.39604 14.0104ZM7.61708 15.4858H14.0605L18.9411 23.9867L22.7797 17.0707V26.6954L18.4064 34.6056L7.61708 15.4858ZM7.60337 34.6056H13.2654V27.243L7.60337 17.258V34.6056ZM23.6708 34.6056H29.7304V15.4858H23.6708V34.6056ZM49.8586 34.6056L49.0909 32.5164H43.141L44.4022 28.727H47.6925L42.8257 15.4858H48.7344L55.9867 34.6056H49.8586ZM42.8374 14.0104H49.6861L58.0576 36.081H48.8959L48.1281 33.9918H43.1926L42.5399 36.081H33.6453L41.1458 15.01L40.7784 14.0104H41.5017L42.1715 12.1287L42.8374 14.0104ZM35.6693 34.6056H41.5233L44.8546 23.9435L42.1676 16.3503L35.6693 34.6056ZM45.4579 26.7418L45.2986 27.2516H45.6453L45.4579 26.7418ZM60.5218 36.081V14.0104H76.4481L80.9187 18.6912V25.6496L78.4511 28.243L82.488 36.081H72.7755L70.1707 30.3465H69.3891V36.081H60.5218ZM67.9852 15.4858H61.9256V34.6056H67.9852V15.4858ZM69.3891 20.7794V23.6928H72.0926V20.7794H69.3891ZM73.4964 19.304V25.1682H68.9449V28.8711H71.0561L73.6609 34.6056H80.1318L76.7181 27.9778L79.5148 25.0385V19.304L75.8681 15.4858H68.9449V19.304H73.4964ZM70.8368 28.3668L71.0561 28.8711H75.8681L76.7181 27.9778L76.5262 27.5744L70.8368 28.3668ZM85.6183 19.6498V15.4858H101.412V19.6498H85.6183ZM88.9579 21.1252H84.2144V14.0104H102.815V21.1252H98.0719V36.081H88.9579V21.1252ZM90.3617 34.6056H96.6681V20.644H90.3617V34.6056ZM118.011 14.0104H126.933V36.081H118.052V28.3149H115.403V36.081H106.536V14.0104H115.403V21.5315H118.011V14.0104ZM119.415 23.0069H114.959V26.8395H119.456V34.6056H125.529V15.4858H119.415V23.0069ZM114 15.4858H107.94V34.6056H114V15.4858ZM145.644 34.6056L144.876 32.5164H138.926L140.187 28.727H143.478L138.611 15.4858H144.519L151.772 34.6056H145.644ZM138.622 14.0104H145.471L153.843 36.081H144.681L143.913 33.9918H138.978L138.325 36.081H129.43L136.931 15.01L136.563 14.0104H137.287L137.957 12.1287L138.622 14.0104ZM131.454 34.6056H137.308L140.64 23.9435L137.953 16.3503L131.454 34.6056ZM141.243 26.7418L141.084 27.2516H141.43L141.243 26.7418Z"/>
</mask>
<path fill-rule="evenodd" clip-rule="evenodd" d="M7.39604 14.0104H14.8531L18.9207 21.0953L22.267 15.0663V14.0104H22.8531L24.1836 11.6133V14.0104H31.1342V36.081H22.267V30.5596L18.4188 37.5199L14.6692 30.8753V36.081H6.19953V15.8661L5.15234 14.0104H6.19953V11.9003L7.39604 14.0104ZM7.61708 15.4858H14.0605L18.9411 23.9867L22.7797 17.0707V26.6954L18.4064 34.6056L7.61708 15.4858ZM7.60337 34.6056H13.2654V27.243L7.60337 17.258V34.6056ZM23.6708 34.6056H29.7304V15.4858H23.6708V34.6056ZM49.8586 34.6056L49.0909 32.5164H43.141L44.4022 28.727H47.6925L42.8257 15.4858H48.7344L55.9867 34.6056H49.8586ZM42.8374 14.0104H49.6861L58.0576 36.081H48.8959L48.1281 33.9918H43.1926L42.5399 36.081H33.6453L41.1458 15.01L40.7784 14.0104H41.5017L42.1715 12.1287L42.8374 14.0104ZM35.6693 34.6056H41.5233L44.8546 23.9435L42.1676 16.3503L35.6693 34.6056ZM45.4579 26.7418L45.2986 27.2516H45.6453L45.4579 26.7418ZM60.5218 36.081V14.0104H76.4481L80.9187 18.6912V25.6496L78.4511 28.243L82.488 36.081H72.7755L70.1707 30.3465H69.3891V36.081H60.5218ZM67.9852 15.4858H61.9256V34.6056H67.9852V15.4858ZM69.3891 20.7794V23.6928H72.0926V20.7794H69.3891ZM73.4964 19.304V25.1682H68.9449V28.8711H71.0561L73.6609 34.6056H80.1318L76.7181 27.9778L79.5148 25.0385V19.304L75.8681 15.4858H68.9449V19.304H73.4964ZM70.8368 28.3668L71.0561 28.8711H75.8681L76.7181 27.9778L76.5262 27.5744L70.8368 28.3668ZM85.6183 19.6498V15.4858H101.412V19.6498H85.6183ZM88.9579 21.1252H84.2144V14.0104H102.815V21.1252H98.0719V36.081H88.9579V21.1252ZM90.3617 34.6056H96.6681V20.644H90.3617V34.6056ZM118.011 14.0104H126.933V36.081H118.052V28.3149H115.403V36.081H106.536V14.0104H115.403V21.5315H118.011V14.0104ZM119.415 23.0069H114.959V26.8395H119.456V34.6056H125.529V15.4858H119.415V23.0069ZM114 15.4858H107.94V34.6056H114V15.4858ZM145.644 34.6056L144.876 32.5164H138.926L140.187 28.727H143.478L138.611 15.4858H144.519L151.772 34.6056H145.644ZM138.622 14.0104H145.471L153.843 36.081H144.681L143.913 33.9918H138.978L138.325 36.081H129.43L136.931 15.01L136.563 14.0104H137.287L137.957 12.1287L138.622 14.0104ZM131.454 34.6056H137.308L140.64 23.9435L137.953 16.3503L131.454 34.6056ZM141.243 26.7418L141.084 27.2516H141.43L141.243 26.7418Z" fill="#EEFF03"/>
<path d="M7.39604 14.0104L4.7864 15.4902L5.64844 17.0104H7.39604V14.0104ZM14.8531 14.0104L17.4548 12.5167L16.59 11.0104H14.8531V14.0104ZM18.9207 21.0953L16.319 22.589L18.9648 27.1975L21.5437 22.5512L18.9207 21.0953ZM22.267 15.0663L24.89 16.5222L25.267 15.8431V15.0663H22.267ZM22.267 14.0104V11.0104H19.267V14.0104H22.267ZM22.8531 14.0104V17.0104H24.6191L25.4761 15.4663L22.8531 14.0104ZM24.1836 11.6133H27.1836V0.0264838L21.5605 10.1574L24.1836 11.6133ZM24.1836 14.0104H21.1836V17.0104H24.1836V14.0104ZM31.1342 14.0104H34.1342V11.0104H31.1342V14.0104ZM31.1342 36.081V39.081H34.1342V36.081H31.1342ZM22.267 36.081H19.267V39.081H22.267V36.081ZM22.267 30.5596H25.267L19.6415 29.108L22.267 30.5596ZM18.4188 37.5199L15.8061 38.9943L18.4456 43.6718L21.0442 38.9715L18.4188 37.5199ZM14.6692 30.8753L17.2819 29.4009L11.6692 19.4546V30.8753H14.6692ZM14.6692 36.081V39.081H17.6692V36.081H14.6692ZM6.19953 36.081H3.19953V39.081H6.19953V36.081ZM6.19953 15.8661H9.19953V15.0781L8.81224 14.3917L6.19953 15.8661ZM5.15234 14.0104V11.0104H0.0147472L2.53963 15.4847L5.15234 14.0104ZM6.19953 14.0104V17.0104H9.19953V14.0104H6.19953ZM6.19953 11.9003L8.80916 10.4205L3.19953 0.527924V11.9003H6.19953ZM7.61708 15.4858V12.4858H2.47949L5.00437 16.9601L7.61708 15.4858ZM14.0605 15.4858L16.6622 13.9921L15.7974 12.4858H14.0605V15.4858ZM18.9411 23.9867L16.3394 25.4804L18.9852 30.0889L21.5641 25.4426L18.9411 23.9867ZM22.7797 17.0707H25.7797V5.48391L20.1567 15.6148L22.7797 17.0707ZM22.7797 26.6954L25.4052 28.147L25.7797 27.4695V26.6954H22.7797ZM18.4064 34.6056L15.7937 36.08L18.4332 40.7574L21.0319 36.0571L18.4064 34.6056ZM7.60337 34.6056H4.60337V37.6056H7.60337V34.6056ZM13.2654 34.6056V37.6056H16.2654V34.6056H13.2654ZM13.2654 27.243H16.2654V26.4516L15.875 25.7632L13.2654 27.243ZM7.60337 17.258L10.213 15.7782L4.60337 5.8856V17.258H7.60337ZM23.6708 34.6056H20.6708V37.6056H23.6708V34.6056ZM29.7304 34.6056V37.6056H32.7304V34.6056H29.7304ZM29.7304 15.4858H32.7304V12.4858H29.7304V15.4858ZM23.6708 15.4858V12.4858H20.6708V15.4858H23.6708ZM49.8586 34.6056L47.0427 35.6404L47.7649 37.6056H49.8586V34.6056ZM49.0909 32.5164L51.9068 31.4816L51.1846 29.5164H49.0909V32.5164ZM43.141 32.5164L40.2945 31.569L38.9806 35.5164H43.141V32.5164ZM44.4022 28.727V25.727H42.239L41.5558 27.7796L44.4022 28.727ZM47.6925 28.727V31.727H51.9914L50.5083 27.6921L47.6925 28.727ZM42.8257 15.4858V12.4858H38.5268L40.0098 16.5208L42.8257 15.4858ZM48.7344 15.4858L51.5394 14.4218L50.8051 12.4858H48.7344V15.4858ZM55.9867 34.6056V37.6056H60.3332L58.7917 33.5416L55.9867 34.6056ZM42.8374 14.0104L40.0092 15.0112L40.7167 17.0104H42.8374V14.0104ZM49.6861 14.0104L52.4911 12.9464L51.7567 11.0104H49.6861V14.0104ZM58.0576 36.081V39.081H62.4041L60.8626 35.0171L58.0576 36.081ZM48.8959 36.081L46.08 37.1158L46.8021 39.081H48.8959V36.081ZM48.1281 33.9918L50.944 32.957L50.2219 30.9918H48.1281V33.9918ZM43.1926 33.9918V30.9918H40.987L40.3292 33.0971L43.1926 33.9918ZM42.5399 36.081V39.081H44.7455L45.4033 36.9757L42.5399 36.081ZM33.6453 36.081L30.819 35.075L29.393 39.081H33.6453V36.081ZM41.1458 15.01L43.9721 16.0161L44.336 14.9937L43.9617 13.975L41.1458 15.01ZM40.7784 14.0104V11.0104H36.4795L37.9626 15.0453L40.7784 14.0104ZM41.5017 14.0104V17.0104H43.6182L44.3279 15.0164L41.5017 14.0104ZM42.1715 12.1287L44.9996 11.1279L42.1798 3.15953L39.3452 11.1226L42.1715 12.1287ZM35.6693 34.6056L32.8431 33.5995L31.417 37.6056H35.6693V34.6056ZM41.5233 34.6056V37.6056H43.7289L44.3867 35.5003L41.5233 34.6056ZM44.8546 23.9435L47.7181 24.8382L48.0161 23.8845L47.6828 22.9426L44.8546 23.9435ZM42.1676 16.3503L44.9957 15.3495L42.1759 7.38112L39.3413 15.3442L42.1676 16.3503ZM45.2986 27.2516L42.4351 26.3569L41.2182 30.2516H45.2986V27.2516ZM45.4579 26.7418L48.2737 25.7069L45.2277 17.4194L42.5944 25.8471L45.4579 26.7418ZM45.6453 27.2516V30.2516H49.9441L48.4611 26.2166L45.6453 27.2516ZM60.5218 36.081H57.5218V39.081H60.5218V36.081ZM60.5218 14.0104V11.0104H57.5218V14.0104H60.5218ZM76.4481 14.0104L78.6176 11.9383L77.7313 11.0104H76.4481V14.0104ZM80.9187 18.6912H83.9187V17.4888L83.0882 16.6192L80.9187 18.6912ZM80.9187 25.6496L83.0921 27.7176L83.9187 26.8488V25.6496H80.9187ZM78.4511 28.243L76.2777 26.1751L74.8073 27.7204L75.784 29.6167L78.4511 28.243ZM82.488 36.081V39.081H87.4077L85.155 34.7074L82.488 36.081ZM72.7755 36.081L70.0441 37.3217L70.8432 39.081H72.7755V36.081ZM70.1707 30.3465L72.9021 29.1058L72.103 27.3465H70.1707V30.3465ZM69.3891 30.3465V27.3465H66.3891V30.3465H69.3891ZM69.3891 36.081V39.081H72.3891V36.081H69.3891ZM67.9852 15.4858H70.9852V12.4858H67.9852V15.4858ZM61.9256 15.4858V12.4858H58.9256V15.4858H61.9256ZM61.9256 34.6056H58.9256V37.6056H61.9256V34.6056ZM67.9852 34.6056V37.6056H70.9852V34.6056H67.9852ZM69.3891 23.6928H66.3891V26.6928H69.3891V23.6928ZM69.3891 20.7794V17.7794H66.3891V20.7794H69.3891ZM72.0926 23.6928V26.6928H75.0926V23.6928H72.0926ZM72.0926 20.7794H75.0926V17.7794H72.0926V20.7794ZM73.4964 19.304H76.4964V16.304H73.4964V19.304ZM73.4964 25.1682V28.1682H76.4964V25.1682H73.4964ZM68.9449 25.1682V22.1682H65.9449V25.1682H68.9449ZM68.9449 28.8711H65.9449V31.8711H68.9449V28.8711ZM73.6609 34.6056L70.9295 35.8463L71.7286 37.6056H73.6609V34.6056ZM80.1318 34.6056V37.6056H85.0514L82.7988 33.232L80.1318 34.6056ZM79.5148 25.0385L81.6882 27.1064L82.5148 26.2377V25.0385H79.5148ZM79.5148 19.304H82.5148V18.1015L81.6843 17.232L79.5148 19.304ZM75.8681 15.4858L78.0376 13.4138L77.1513 12.4858H75.8681V15.4858ZM68.9449 15.4858V12.4858H65.9449V15.4858H68.9449ZM68.9449 19.304H65.9449V22.304H68.9449V19.304ZM70.8368 28.3668L70.4229 25.3955L66.5099 25.9405L68.0857 29.5634L70.8368 28.3668ZM75.8681 28.8711V31.8711H77.1547L78.0415 30.9391L75.8681 28.8711ZM76.5262 27.5744L79.2352 26.2855L78.2905 24.2997L76.1123 24.603L76.5262 27.5744ZM85.6183 19.6498H82.6183V22.6498H85.6183V19.6498ZM85.6183 15.4858V12.4858H82.6183V15.4858H85.6183ZM101.412 15.4858H104.412V12.4858H101.412V15.4858ZM101.412 19.6498V22.6498H104.412V19.6498H101.412ZM88.9579 21.1252H91.9579V18.1252H88.9579V21.1252ZM84.2144 21.1252H81.2144V24.1252H84.2144V21.1252ZM84.2144 14.0104V11.0104H81.2144V14.0104H84.2144ZM102.815 14.0104H105.815V11.0104H102.815V14.0104ZM102.815 21.1252V24.1252H105.815V21.1252H102.815ZM98.0719 21.1252V18.1252H95.0719V21.1252H98.0719ZM98.0719 36.081V39.081H101.072V36.081H98.0719ZM88.9579 36.081H85.9579V39.081H88.9579V36.081ZM90.3617 34.6056H87.3617V37.6056H90.3617V34.6056ZM96.6681 34.6056V37.6056H99.6681V34.6056H96.6681ZM96.6681 20.644H99.6681V17.644H96.6681V20.644ZM90.3617 20.644V17.644H87.3617V20.644H90.3617ZM118.011 14.0104V11.0104H115.011V14.0104H118.011ZM126.933 14.0104H129.933V11.0104H126.933V14.0104ZM126.933 36.081V39.081H129.933V36.081H126.933ZM118.052 36.081H115.052V39.081H118.052V36.081ZM118.052 28.3149H121.052V25.3149H118.052V28.3149ZM115.403 28.3149V25.3149H112.403V28.3149H115.403ZM115.403 36.081V39.081H118.403V36.081H115.403ZM106.536 36.081H103.536V39.081H106.536V36.081ZM106.536 14.0104V11.0104H103.536V14.0104H106.536ZM115.403 14.0104H118.403V11.0104H115.403V14.0104ZM115.403 21.5315H112.403V24.5315H115.403V21.5315ZM118.011 21.5315V24.5315H121.011V21.5315H118.011ZM119.415 23.0069V26.0069H122.415V23.0069H119.415ZM114.959 23.0069V20.0069H111.959V23.0069H114.959ZM114.959 26.8395H111.959V29.8395H114.959V26.8395ZM119.456 26.8395H122.456V23.8395H119.456V26.8395ZM119.456 34.6056H116.456V37.6056H119.456V34.6056ZM125.529 34.6056V37.6056H128.529V34.6056H125.529ZM125.529 15.4858H128.529V12.4858H125.529V15.4858ZM119.415 15.4858V12.4858H116.415V15.4858H119.415ZM114 15.4858H117V12.4858H114V15.4858ZM107.94 15.4858V12.4858H104.94V15.4858H107.94ZM107.94 34.6056H104.94V37.6056H107.94V34.6056ZM114 34.6056V37.6056H117V34.6056H114ZM145.644 34.6056L142.828 35.6404L143.55 37.6056H145.644V34.6056ZM144.876 32.5164L147.692 31.4816L146.97 29.5164H144.876V32.5164ZM138.926 32.5164L136.08 31.569L134.766 35.5164H138.926V32.5164ZM140.187 28.727V25.727H138.024L137.341 27.7796L140.187 28.727ZM143.478 28.727V31.727H147.776L146.293 27.6921L143.478 28.727ZM138.611 15.4858V12.4858H134.312L135.795 16.5208L138.611 15.4858ZM144.519 15.4858L147.324 14.4218L146.59 12.4858H144.519V15.4858ZM151.772 34.6056V37.6056H156.118L154.577 33.5416L151.772 34.6056ZM138.622 14.0104L135.794 15.0112L136.502 17.0104H138.622V14.0104ZM145.471 14.0104L148.276 12.9464L147.542 11.0104H145.471V14.0104ZM153.843 36.081V39.081H158.189L156.648 35.0171L153.843 36.081ZM144.681 36.081L141.865 37.1158L142.587 39.081H144.681V36.081ZM143.913 33.9918L146.729 32.957L146.007 30.9918H143.913V33.9918ZM138.978 33.9918V30.9918H136.772L136.114 33.0971L138.978 33.9918ZM138.325 36.081V39.081H140.531L141.188 36.9757L138.325 36.081ZM129.43 36.081L126.604 35.075L125.178 39.081H129.43V36.081ZM136.931 15.01L139.757 16.016L140.121 14.9936L139.747 13.975L136.931 15.01ZM136.563 14.0104V11.0104H132.265L133.748 15.0454L136.563 14.0104ZM137.287 14.0104V17.0104H139.403L140.113 15.0164L137.287 14.0104ZM137.957 12.1287L140.785 11.1279L137.965 3.15953L135.13 11.1226L137.957 12.1287ZM131.454 34.6056L128.628 33.5995L127.202 37.6056H131.454V34.6056ZM137.308 34.6056V37.6056H139.514L140.172 35.5003L137.308 34.6056ZM140.64 23.9435L143.503 24.8382L143.801 23.8845L143.468 22.9426L140.64 23.9435ZM137.953 16.3503L140.781 15.3495L137.961 7.38112L135.126 15.3442L137.953 16.3503ZM141.084 27.2516L138.22 26.3569L137.003 30.2516H141.084V27.2516ZM141.243 26.7418L144.059 25.7068L141.013 17.4196L138.379 25.8471L141.243 26.7418ZM141.43 27.2516V30.2516H145.729L144.246 26.2166L141.43 27.2516ZM19.267 14.0104V15.0663H25.267V14.0104H19.267ZM22.8531 11.0104H22.267V17.0104H22.8531V11.0104ZM21.5605 10.1574L20.23 12.5545L25.4761 15.4663L26.8066 13.0692L21.5605 10.1574ZM27.1836 14.0104V11.6133H21.1836V14.0104H27.1836ZM2.53963 15.4847L3.58681 17.3405L8.81224 14.3917L7.76506 12.536L2.53963 15.4847ZM6.19953 11.0104H5.15234V17.0104H6.19953V11.0104ZM3.19953 11.9003V14.0104H9.19953V11.9003H3.19953ZM10.0057 12.5306L8.80916 10.4205L3.58989 13.3801L4.7864 15.4902L10.0057 12.5306ZM52.6745 33.5708L51.9068 31.4816L46.275 33.5512L47.0427 35.6404L52.6745 33.5708ZM43.1926 36.9918H48.1281V30.9918H43.1926V36.9918ZM37.9626 15.0453L38.33 16.045L43.9617 13.975L43.5942 12.9754L37.9626 15.0453ZM41.5017 11.0104H40.7784V17.0104H41.5017V11.0104ZM39.3452 11.1226L38.6754 13.0043L44.3279 15.0164L44.9977 13.1348L39.3452 11.1226ZM45.6655 13.0096L44.9996 11.1279L39.3433 13.1295L40.0092 15.0112L45.6655 13.0096ZM48.1621 28.1463L48.3214 27.6365L42.5944 25.8471L42.4351 26.3569L48.1621 28.1463ZM45.6453 24.2516H45.2986V30.2516H45.6453V24.2516ZM42.6421 27.7768L42.8294 28.2866L48.4611 26.2166L48.2737 25.7069L42.6421 27.7768ZM69.3891 33.3465H70.1707V27.3465H69.3891V33.3465ZM72.3891 23.6928V20.7794H66.3891V23.6928H72.3891ZM72.0926 20.6928H69.3891V26.6928H72.0926V20.6928ZM69.0926 20.7794V23.6928H75.0926V20.7794H69.0926ZM69.3891 23.7794H72.0926V17.7794H69.3891V23.7794ZM76.5148 19.304V25.0385H82.5148V19.304H76.5148ZM73.6987 17.5578L77.3454 21.376L81.6843 17.232L78.0376 13.4138L73.6987 17.5578ZM68.0857 29.5634L68.3051 30.0677L73.8071 27.6745L73.5878 27.1702L68.0857 29.5634ZM79.4272 26.689L79.2352 26.2855L73.8171 28.8632L74.0091 29.2666L79.4272 26.689ZM115.403 31.3149H118.052V25.3149H115.403V31.3149ZM118.011 18.5315H115.403V24.5315H118.011V18.5315ZM148.46 33.5708L147.692 31.4816L142.06 33.5512L142.828 35.6404L148.46 33.5708ZM138.978 36.9918H143.913V30.9918H138.978V36.9918ZM133.748 15.0454L134.115 16.045L139.747 13.975L139.379 12.9754L133.748 15.0454ZM137.287 11.0104H136.563V17.0104H137.287V11.0104ZM135.13 11.1226L134.46 13.0043L140.113 15.0164L140.783 13.1348L135.13 11.1226ZM141.451 13.0096L140.785 11.1279L135.128 13.1295L135.794 15.0112L141.451 13.0096ZM143.947 28.1463L144.106 27.6365L138.379 25.8471L138.22 26.3569L143.947 28.1463ZM141.43 24.2516H141.084V30.2516H141.43V24.2516ZM138.427 27.7768L138.615 28.2866L144.246 26.2166L144.059 25.7068L138.427 27.7768ZM14.8531 11.0104H7.39604V17.0104H14.8531V11.0104ZM21.5224 19.6016L17.4548 12.5167L12.2514 15.5041L16.319 22.589L21.5224 19.6016ZM19.6439 13.6104L16.2976 19.6394L21.5437 22.5512L24.89 16.5222L19.6439 13.6104ZM31.1342 11.0104H24.1836V17.0104H31.1342V11.0104ZM34.1342 36.081V14.0104H28.1342V36.081H34.1342ZM22.267 39.081H31.1342V33.081H22.267V39.081ZM19.267 30.5596V36.081H25.267V30.5596H19.267ZM21.0442 38.9715L24.8924 32.0111L19.6415 29.108L15.7933 36.0684L21.0442 38.9715ZM12.0565 32.3496L15.8061 38.9943L21.0315 36.0456L17.2819 29.4009L12.0565 32.3496ZM17.6692 36.081V30.8753H11.6692V36.081H17.6692ZM6.19953 39.081H14.6692V33.081H6.19953V39.081ZM3.19953 15.8661V36.081H9.19953V15.8661H3.19953ZM21.0191 33.1312L10.2298 14.0114L5.00437 16.9601L15.7937 36.08L21.0191 33.1312ZM7.61708 18.4858H14.0605V12.4858H7.61708V18.4858ZM11.4588 16.9795L16.3394 25.4804L21.5428 22.493L16.6622 13.9921L11.4588 16.9795ZM21.5641 25.4426L25.4028 18.5266L20.1567 15.6148L16.318 22.5308L21.5641 25.4426ZM19.7797 17.0707V26.6954H25.7797V17.0707H19.7797ZM20.1543 25.2439L15.781 33.1541L21.0319 36.0571L25.4052 28.147L20.1543 25.2439ZM10.6034 34.6056V17.258H4.60337V34.6056H10.6034ZM13.2654 31.6056H7.60337V37.6056H13.2654V31.6056ZM10.2654 27.243V34.6056H16.2654V27.243H10.2654ZM4.99374 18.7378L10.6557 28.7228L15.875 25.7632L10.213 15.7782L4.99374 18.7378ZM26.6708 34.6056V15.4858H20.6708V34.6056H26.6708ZM29.7304 31.6056H23.6708V37.6056H29.7304V31.6056ZM26.7304 15.4858V34.6056H32.7304V15.4858H26.7304ZM23.6708 18.4858H29.7304V12.4858H23.6708V18.4858ZM55.9867 31.6056H49.8586V37.6056H55.9867V31.6056ZM49.0909 29.5164H43.141V35.5164H49.0909V29.5164ZM45.9874 33.4638L47.2487 29.6744L41.5558 27.7796L40.2945 31.569L45.9874 33.4638ZM44.4022 31.727H47.6925V25.727H44.4022V31.727ZM50.5083 27.6921L45.6415 14.4508L40.0098 16.5208L44.8767 29.762L50.5083 27.6921ZM42.8257 18.4858H48.7344V12.4858H42.8257V18.4858ZM45.9294 16.5497L53.1817 35.6696L58.7917 33.5416L51.5394 14.4218L45.9294 16.5497ZM49.6861 11.0104H42.8374V17.0104H49.6861V11.0104ZM60.8626 35.0171L52.4911 12.9464L46.8811 15.0743L55.2526 37.145L60.8626 35.0171ZM48.8959 39.081H58.0576V33.081H48.8959V39.081ZM45.3122 35.0266L46.08 37.1158L51.7118 35.0463L50.944 32.957L45.3122 35.0266ZM45.4033 36.9757L46.0561 34.8865L40.3292 33.0971L39.6764 35.1863L45.4033 36.9757ZM33.6453 39.081H42.5399V33.081H33.6453V39.081ZM38.3196 14.0039L30.819 35.075L36.4715 37.0871L43.9721 16.0161L38.3196 14.0039ZM38.4956 35.6117L44.9939 17.3563L39.3413 15.3442L32.8431 33.5995L38.4956 35.6117ZM41.5233 31.6056H35.6693V37.6056H41.5233V31.6056ZM41.9912 23.0488L38.6598 33.7109L44.3867 35.5003L47.7181 24.8382L41.9912 23.0488ZM39.3395 17.3511L42.0265 24.9443L47.6828 22.9426L44.9957 15.3495L39.3395 17.3511ZM57.5218 14.0104V36.081H63.5218V14.0104H57.5218ZM76.4481 11.0104H60.5218V17.0104H76.4481V11.0104ZM83.0882 16.6192L78.6176 11.9383L74.2786 16.0824L78.7492 20.7633L83.0882 16.6192ZM83.9187 25.6496V18.6912H77.9187V25.6496H83.9187ZM80.6244 30.311L83.0921 27.7176L78.7453 23.5817L76.2777 26.1751L80.6244 30.311ZM85.155 34.7074L81.1181 26.8694L75.784 29.6167L79.821 37.4547L85.155 34.7074ZM72.7755 39.081H82.488V33.081H72.7755V39.081ZM67.4393 31.5872L70.0441 37.3217L75.5069 34.8403L72.9021 29.1058L67.4393 31.5872ZM72.3891 36.081V30.3465H66.3891V36.081H72.3891ZM60.5218 39.081H69.3891V33.081H60.5218V39.081ZM64.9852 15.4858V34.6056H70.9852V15.4858H64.9852ZM61.9256 18.4858H67.9852V12.4858H61.9256V18.4858ZM64.9256 34.6056V15.4858H58.9256V34.6056H64.9256ZM67.9852 31.6056H61.9256V37.6056H67.9852V31.6056ZM73.4964 16.304H68.9449V22.304H73.4964V16.304ZM76.4964 25.1682V19.304H70.4964V25.1682H76.4964ZM68.9449 28.1682H73.4964V22.1682H68.9449V28.1682ZM71.9449 28.8711V25.1682H65.9449V28.8711H71.9449ZM71.0561 25.8711H68.9449V31.8711H71.0561V25.8711ZM76.3923 33.3649L73.7875 27.6304L68.3247 30.1118L70.9295 35.8463L76.3923 33.3649ZM80.1318 31.6056H73.6609V37.6056H80.1318V31.6056ZM74.0511 29.3514L77.4647 35.9793L82.7988 33.232L79.3852 26.6041L74.0511 29.3514ZM77.3415 22.9705L74.5447 25.9098L78.8915 30.0457L81.6882 27.1064L77.3415 22.9705ZM68.9449 18.4858H75.8681V12.4858H68.9449V18.4858ZM71.9449 19.304V15.4858H65.9449V19.304H71.9449ZM76.1123 24.603L70.4229 25.3955L71.2506 31.3381L76.94 30.5457L76.1123 24.603ZM71.0561 31.8711H75.8681V25.8711H71.0561V31.8711ZM78.0415 30.9391L78.8915 30.0457L74.5447 25.9098L73.6948 26.8031L78.0415 30.9391ZM101.412 16.6498H85.6183V22.6498H101.412V16.6498ZM88.6183 19.6498V15.4858H82.6183V19.6498H88.6183ZM85.6183 18.4858H101.412V12.4858H85.6183V18.4858ZM98.4115 15.4858V19.6498H104.412V15.4858H98.4115ZM84.2144 24.1252H88.9579V18.1252H84.2144V24.1252ZM81.2144 14.0104V21.1252H87.2144V14.0104H81.2144ZM102.815 11.0104H84.2144V17.0104H102.815V11.0104ZM105.815 21.1252V14.0104H99.8154V21.1252H105.815ZM98.0719 24.1252H102.815V18.1252H98.0719V24.1252ZM101.072 36.081V21.1252H95.0719V36.081H101.072ZM88.9579 39.081H98.0719V33.081H88.9579V39.081ZM85.9579 21.1252V36.081H91.9579V21.1252H85.9579ZM93.3617 34.6056V20.644H87.3617V34.6056H93.3617ZM96.6681 31.6056H90.3617V37.6056H96.6681V31.6056ZM93.6681 20.644V34.6056H99.6681V20.644H93.6681ZM90.3617 23.644H96.6681V17.644H90.3617V23.644ZM126.933 11.0104H118.011V17.0104H126.933V11.0104ZM129.933 36.081V14.0104H123.933V36.081H129.933ZM118.052 39.081H126.933V33.081H118.052V39.081ZM115.052 28.3149V36.081H121.052V28.3149H115.052ZM118.403 36.081V28.3149H112.403V36.081H118.403ZM106.536 39.081H115.403V33.081H106.536V39.081ZM103.536 14.0104V36.081H109.536V14.0104H103.536ZM115.403 11.0104H106.536V17.0104H115.403V11.0104ZM118.403 21.5315V14.0104H112.403V21.5315H118.403ZM115.011 14.0104V21.5315H121.011V14.0104H115.011ZM122.415 23.0069V15.4858H116.415V23.0069H122.415ZM114.959 26.0069H119.415V20.0069H114.959V26.0069ZM117.959 26.8395V23.0069H111.959V26.8395H117.959ZM119.456 23.8395H114.959V29.8395H119.456V23.8395ZM122.456 34.6056V26.8395H116.456V34.6056H122.456ZM125.529 31.6056H119.456V37.6056H125.529V31.6056ZM122.529 15.4858V34.6056H128.529V15.4858H122.529ZM119.415 18.4858H125.529V12.4858H119.415V18.4858ZM111 15.4858V34.6056H117V15.4858H111ZM107.94 18.4858H114V12.4858H107.94V18.4858ZM110.94 34.6056V15.4858H104.94V34.6056H110.94ZM114 31.6056H107.94V37.6056H114V31.6056ZM151.772 31.6056H145.644V37.6056H151.772V31.6056ZM144.876 29.5164H138.926V35.5164H144.876V29.5164ZM141.773 33.4638L143.034 29.6744L137.341 27.7796L136.08 31.569L141.773 33.4638ZM140.187 31.727H143.478V25.727H140.187V31.727ZM146.293 27.6921L141.427 14.4508L135.795 16.5208L140.662 29.762L146.293 27.6921ZM138.611 18.4858H144.519V12.4858H138.611V18.4858ZM141.714 16.5497L148.967 35.6696L154.577 33.5416L147.324 14.4218L141.714 16.5497ZM145.471 11.0104H138.622V17.0104H145.471V11.0104ZM156.648 35.0171L148.276 12.9464L142.666 15.0743L151.038 37.145L156.648 35.0171ZM144.681 39.081H153.843V33.081H144.681V39.081ZM141.097 35.0266L141.865 37.1158L147.497 35.0462L146.729 32.957L141.097 35.0266ZM141.188 36.9757L141.841 34.8865L136.114 33.0971L135.461 35.1863L141.188 36.9757ZM129.43 39.081H138.325V33.081H129.43V39.081ZM134.105 14.0039L126.604 35.075L132.257 37.0871L139.757 16.016L134.105 14.0039ZM134.281 35.6117L140.779 17.3563L135.126 15.3442L128.628 33.5995L134.281 35.6117ZM137.308 31.6056H131.454V37.6056H137.308V31.6056ZM137.776 23.0488L134.445 33.7109L140.172 35.5003L143.503 24.8382L137.776 23.0488ZM135.125 17.3511L137.812 24.9443L143.468 22.9426L140.781 15.3495L135.125 17.3511Z" fill="#1E1E22" mask="url(#path-1-outside-1_649_2)"/>
</svg>
